<?xml version="1.0" encoding="utf-8"?>
<!-- Generator: Adobe Illustrator 24.1.2, SVG Export Plug-In . SVG Version: 6.00 Build 0)  -->
<svg version="1.1" id="Capa_1" xmlns="http://www.w3.org/2000/svg" xmlns:xlink="http://www.w3.org/1999/xlink" x="0px" y="0px"
	 viewBox="0 0 60 60" style="enable-background:new 0 0 60 60;" xml:space="preserve">
<style type="text/css">
	.st0{fill:#FF9900;}
</style>
<g>
	<path class="st0" d="M59,38c-3.7,0-6.7-3-6.7-6.7c0-0.6-0.4-1-1-1s-1,0.4-1,1c0,4.8,3.9,8.7,8.7,8.7c0.6,0,1-0.4,1-1S59.6,38,59,38
		z"/>
	<path class="st0" d="M58.3,35.7c0.6,0,1-0.4,1-1s-0.4-1-1-1c-0.9,0-1.6-0.7-1.6-1.6c0-0.6-0.4-1-1-1s-1,0.4-1,1
		C54.7,34,56.3,35.7,58.3,35.7z"/>
	<path class="st0" d="M20,3c3.7,0,6.7,3,6.7,6.7c0,0.6,0.4,1,1,1s1-0.4,1-1C28.7,4.9,24.8,1,20,1c-0.6,0-1,0.4-1,1S19.4,3,20,3z"/>
	<path class="st0" d="M19.7,6.3c0,0.6,0.4,1,1,1c0.9,0,1.6,0.7,1.6,1.6c0,0.6,0.4,1,1,1s1-0.4,1-1c0-2-1.6-3.6-3.6-3.6
		C20.2,5.3,19.7,5.8,19.7,6.3z"/>
	<path class="st0" d="M44.1,37.9c-1.3-0.7-2.6-1-3.7-0.6c-0.8,0.2-1.5,0.8-2,1.5c-1,1.2-2.3,2.6-2.6,2.9c-2.4,1.6-4.3,1.4-6.3-0.6
		L18,29.5c-2-2-2.2-3.9-0.6-6.3c0.2-0.3,1.6-1.6,2.9-2.6c0.8-0.5,1.3-1.2,1.5-2c0.3-1.1,0.1-2.4-0.7-3.7c-0.2-0.3-4.3-7.3-8.1-9.3
		c-1.9-1-4.3-0.7-5.8,0.9L4.7,9.1c-4,4-5.5,8.6-4.3,13.5c1,4.1,3.7,8.5,8.3,13.1l14.7,14.7c5.8,5.8,11.3,8.7,16.3,8.7
		c3.7,0,7.2-1.6,10.3-4.7l2.5-2.5c1.5-1.5,1.9-3.9,0.9-5.8C51.4,42.2,44.4,38.1,44.1,37.9z M51.1,50.4l-2.5,2.5
		c-6.6,6.6-14.6,5.2-23.8-4L10.1,34.2C5.8,30,3.2,25.9,2.3,22.1c-1-4.3,0.2-8.1,3.8-11.7l2.5-2.5c0.6-0.6,1.3-0.9,2.1-0.9
		c0.5,0,0.9,0.1,1.4,0.3c3.3,1.7,7.3,8.5,7.3,8.5c0.4,0.8,0.6,1.6,0.5,2.2c-0.1,0.4-0.3,0.6-0.7,0.8L19,19.1
		c-0.9,0.7-2.9,2.4-3.3,3.1c-0.6,0.9-1,1.8-1.2,2.7c-0.7-1.4-1.3-3.1-1.5-4.9c-0.1-0.5-0.5-0.9-1.1-0.9c-0.5,0.1-0.9,0.5-0.9,1.1
		c0.7,7,6.1,11.5,6.4,11.7c0,0,0.1,0,0.1,0l10.6,10.6c0,0,0.1,0.1,0.1,0.1c0,0.1,0.1,0.1,0.1,0.2c0.2,0.2,4.7,4.6,11.6,5.3
		c0,0,0.1,0,0.1,0c0.5,0,0.9-0.4,1-0.9c0.1-0.5-0.3-1-0.9-1.1c-2.1-0.2-4-0.8-5.5-1.6c0.8-0.2,1.5-0.6,2.3-1.1
		c0.6-0.4,2.3-2.5,3.1-3.3l0.1-0.2c0.2-0.4,0.5-0.6,0.8-0.7c0.6-0.2,1.4,0,2.2,0.5c0.1,0,6.8,4,8.5,7.3C52.2,48.1,52,49.4,51.1,50.4
		z"/>
</g>
</svg>
