<?xml version="1.0" encoding="utf-8"?>
<!-- Generator: Adobe Illustrator 24.1.2, SVG Export Plug-In . SVG Version: 6.00 Build 0)  -->
<svg version="1.1" id="Layer_1" xmlns="http://www.w3.org/2000/svg" xmlns:xlink="http://www.w3.org/1999/xlink" x="0px" y="0px"
	 viewBox="0 0 512 512" style="enable-background:new 0 0 512 512;" xml:space="preserve">
<style type="text/css">
	.st0{fill:#FF9900;}
</style>
<g>
	<g>
		<path class="st0" d="M496,232.3c-3.1-1.3-6.3-1.9-9.6-1.9c-6.8,0-13.5,2.7-18.4,7.9c-24.2,25.1-53.5,45.4-83.8,58.6
			c12.4-24.9,23.1-52.3,21.6-82.6c-0.5-9.4-6.1-17.8-14.6-21.9c-3.5-1.7-7.2-2.5-11-2.5c-5.4,0-10.7,1.7-15.2,5
			c-15.5,11.5-51.2,20.9-82.1,24.7c15.6-22.9,24.2-50.1,24.2-78.8C307.2,63.2,244,0,166.4,0c-29.2,0-54.1,7.3-74,21.6l-1.1,0.8
			c-8.3,6-15.4,11-23.1,19.5l-36.8-8.4c-1.9-0.4-3.8-0.6-5.7-0.6c-7.6,0-14.9,3.4-19.8,9.4c-6.2,7.6-7.5,18-3.4,26.8
			c7.8,17.1,16.4,36.1,21.1,46.8C4.1,161.6,0,205.3,0,256c0,141.2,114.8,256,256,256s256-114.8,256-256
			C512,245.6,505.7,236.2,496,232.3z M256,486.4C128.8,486.4,25.6,383.2,25.6,256c0-50.4,4-93.6,25.6-139.6c0.4-1.2-25.6-58-25.6-58
			l52.4,12c10.5-14.7,17.2-19.3,29.3-28c16.7-12,37.4-16.8,59.1-16.8c63.6,0,115.2,51.6,115.2,115.2c0,41.3-21.9,77.2-54.4,97.5
			c0.6,5.9,12.7,8.6,30.1,8.6c36.6,0,96.6-11.9,123-31.4c2.1,43.7-27.7,82.1-45.9,122.1c54.4-7.5,110.9-38.9,152-81.6
			C486.4,383.2,383.2,486.4,256,486.4z"/>
	</g>
</g>
</svg>
